<svg width="424.8250244140625px" height="121.60000610351562px" xmlns="http://www.w3.org/2000/svg" viewBox="37.587487792968744 14.199996948242188 424.8250244140625 121.60000610351562" style="background: rgba(0, 0, 0, 0);" preserveAspectRatio="xMidYMid"><defs><linearGradient id="editing-gradient-gradient" x1="0" x2="1" y1="0.5" y2="0.5" gradientUnits="objectBoundingBox"><stop offset="0" stop-color="#865dff"></stop><stop offset="1" stop-color="#e384ff"></stop></linearGradient></defs><g><g transform="translate(100.78499174118042, 104.78999710083008)"><path d="M27.01-20.61L39.94-21.76L39.94-21.76Q35.33-11.65 35.33 0.06L35.33 0.06L35.33 0.06Q33.60 1.28 31.07 1.28L31.07 1.28L31.07 1.28Q28.54 1.28 26.94 0.10L26.94 0.10L26.94 0.10Q25.34-1.09 25.02-2.30L25.02-2.30L25.02-2.30Q23.42-0.64 20.83 0.32L20.83 0.32L20.83 0.32Q18.24 1.28 15.49 1.28L15.49 1.28L15.49 1.28Q12.74 1.28 10.34 0.38L10.34 0.38L10.34 0.38Q7.94-0.51 6.08-2.50L6.08-2.50L6.08-2.50Q1.98-6.85 1.98-15.10L1.98-15.10L1.98-15.10Q1.98-27.90 8.83-35.58L8.83-35.58L8.83-35.58Q15.87-43.52 28.35-43.52L28.35-43.52L28.35-43.52Q36.99-43.52 40.06-39.04L40.06-39.04L40.06-39.04Q41.02-37.63 41.02-35.94L41.02-35.94L41.02-35.94Q41.02-34.24 40.29-32.80L40.29-32.80L40.29-32.80Q39.55-31.36 38.40-30.21L38.40-30.21L38.40-30.21Q35.65-27.65 32.26-27.65L32.26-27.65L32.26-27.65Q30.91-27.65 29.63-28.10L29.63-28.10L29.63-28.10Q29.89-30.02 29.89-32.26L29.89-32.26L29.89-32.26Q29.89-34.50 29.73-35.52L29.73-35.52L29.73-35.52Q29.57-36.54 29.18-37.38L29.18-37.38L29.18-37.38Q28.35-39.10 26.53-39.10L26.53-39.10L26.53-39.10Q24.70-39.10 22.69-37.15L22.69-37.15L22.69-37.15Q20.67-35.20 19.07-32L19.07-32L19.07-32Q15.55-24.83 15.55-16.19L15.55-16.19L15.55-16.19Q15.55-12.22 17.09-9.41L17.09-9.41L17.09-9.41Q18.75-6.34 21.70-6.34L21.70-6.34L21.70-6.34Q22.72-6.34 23.65-6.85L23.65-6.85L23.65-6.85Q24.58-7.36 24.96-7.74L24.96-7.74L27.01-20.61ZM58.37-3.52L58.37-3.52L58.37-3.52Q56.38 1.28 50.05 1.28L50.05 1.28L50.05 1.28Q46.85 1.28 44.80-0.96L44.80-0.96L44.80-0.96Q43.14-2.82 43.14-4.93L43.14-4.93L43.14-4.93Q43.14-9.73 45.38-20.22L45.38-20.22L50.05-44.80L63.04-46.08L56.83-13.70L56.83-13.70Q55.74-8.96 55.74-7.30L55.74-7.30L55.74-7.30Q55.74-3.65 58.37-3.52ZM79.17-3.52L79.17-3.52L79.17-3.52Q77.18 1.28 70.85 1.28L70.85 1.28L70.85 1.28Q67.58 1.28 65.54-0.96L65.54-0.96L65.54-0.96Q63.81-2.94 63.81-4.93L63.81-4.93L63.81-4.93Q63.81-10.11 66.18-20.22L66.18-20.22L68.54-32.64L81.54-33.92L77.63-13.70L77.63-13.70Q76.54-8.96 76.54-7.30L76.54-7.30L76.54-7.30Q76.54-3.65 79.17-3.52ZM69.70-41.54L69.70-41.54L69.70-41.54Q69.70-44.03 71.78-45.38L71.78-45.38L71.78-45.38Q73.86-46.72 76.86-46.72L76.86-46.72L76.86-46.72Q79.87-46.72 81.70-45.38L81.70-45.38L81.70-45.38Q83.52-44.03 83.52-41.54L83.52-41.54L83.52-41.54Q83.52-39.04 81.50-37.76L81.50-37.76L81.50-37.76Q79.49-36.48 76.48-36.48L76.48-36.48L76.48-36.48Q73.47-36.48 71.58-37.76L71.58-37.76L71.58-37.76Q69.70-39.04 69.70-41.54ZM130.69 1.28L130.69 1.28L130.69 1.28Q122.94 1.28 122.94-4.74L122.94-4.74L122.94-4.74Q122.94-7.36 124.06-12.45L124.06-12.45L124.06-12.45Q125.18-17.54 125.57-19.58L125.57-19.58L125.57-19.58Q126.46-24.26 126.46-25.73L126.46-25.73L126.46-25.73Q126.46-28.99 124.03-28.99L124.03-28.99L124.03-28.99Q122.43-28.99 120.90-26.78L120.90-26.78L120.90-26.78Q119.36-24.58 118.66-20.16L118.66-20.16L114.69 0L102.21 1.28L105.66-16.13L105.66-16.13Q106.24-19.01 106.75-22.27L106.75-22.27L106.75-22.27Q107.26-25.54 107.26-26.05L107.26-26.05L107.26-26.05Q107.26-28.99 105.09-28.99L105.09-28.99L105.09-28.99Q103.62-28.99 102.02-26.82L102.02-26.82L102.02-26.82Q100.42-24.64 99.52-20.16L99.52-20.16L95.62 0L83.01 1.28L89.73-32.64L100.16-33.92L99.07-27.46L99.07-27.46Q100.74-30.91 103.81-32.42L103.81-32.42L103.81-32.42Q106.88-33.92 111.68-33.92L111.68-33.92L111.68-33.92Q114.43-33.92 116.22-32.58L116.22-32.58L116.22-32.58Q118.02-31.23 118.59-29.06L118.59-29.06L118.59-29.06Q119.68-31.30 122.46-32.61L122.46-32.61L122.46-32.61Q125.25-33.92 128.67-33.92L128.67-33.92L128.67-33.92Q132.10-33.92 133.79-33.18L133.79-33.18L133.79-33.18Q135.49-32.45 136.51-31.23L136.51-31.23L136.51-31.23Q138.24-28.99 138.24-24.90L138.24-24.90L138.24-24.90Q138.24-20.86 136.51-12.48L136.51-12.48L136.51-12.48Q135.62-8.38 135.62-6.88L135.62-6.88L135.62-6.88Q135.62-5.38 136.48-4.48L136.48-4.48L136.48-4.48Q137.34-3.58 138.62-3.46L138.62-3.46L138.62-3.46Q137.98-1.28 135.78 0L135.78 0L135.78 0Q133.57 1.28 130.69 1.28ZM173.38-4.38L173.38-4.38L173.38-4.38Q170.69-1.66 167.01-0.19L167.01-0.19L167.01-0.19Q163.33 1.28 159.68 1.28L159.68 1.28L159.68 1.28Q156.03 1.28 154.75 0.64L154.75 0.64L152.77 11.52L139.78 12.80L148.61-32.64L159.04-33.73L158.21-29.31L158.21-29.31Q160.90-33.86 166.46-33.86L166.46-33.86L166.46-33.86Q172.74-33.86 176.06-29.82L176.06-29.82L176.06-29.82Q179.01-26.18 179.01-20.61L179.01-20.61L179.01-20.61Q179.01-15.04 177.54-11.07L177.54-11.07L177.54-11.07Q176.06-7.10 173.38-4.38ZM158.91-22.34L155.52-3.58L155.52-3.58Q156.86-2.43 158.53-2.43L158.53-2.43L158.53-2.43Q160.19-2.43 161.15-3.07L161.15-3.07L161.15-3.07Q162.11-3.71 162.82-4.99L162.82-4.99L162.82-4.99Q164.74-8.45 166.27-18.94L166.27-18.94L166.27-18.94Q166.72-22.02 166.72-25.02L166.72-25.02L166.72-25.02Q166.72-28.03 166.05-28.99L166.05-28.99L166.05-28.99Q165.38-29.95 164.10-29.95L164.10-29.95L164.10-29.95Q160.19-29.95 158.91-22.34L158.91-22.34ZM201.98-22.46L201.98-22.46L201.98-22.46Q202.88-24.83 202.88-26.88L202.88-26.88L202.88-26.88Q202.88-30.66 199.81-30.66L199.81-30.66L199.81-30.66Q198.21-30.66 196.90-29.22L196.90-29.22L196.90-29.22Q195.58-27.78 195.58-25.98L195.58-25.98L195.58-25.98Q195.58-24.70 196.61-23.68L196.61-23.68L196.61-23.68Q198.08-22.27 201.86-19.97L201.86-19.97L201.86-19.97Q205.63-17.66 207.07-15.78L207.07-15.78L207.07-15.78Q208.51-13.89 208.51-11.30L208.51-11.30L208.51-11.30Q208.51-8.70 207.26-6.34L207.26-6.34L207.26-6.34Q206.02-3.97 203.78-2.30L203.78-2.30L203.78-2.30Q198.98 1.28 191.30 1.28L191.30 1.28L191.30 1.28Q187.14 1.28 183.94-0.90L183.94-0.90L183.94-0.90Q180.74-3.01 180.74-5.50L180.74-5.50L180.74-5.50Q180.74-8 182.56-9.47L182.56-9.47L182.56-9.47Q184.38-10.94 187.07-10.94L187.07-10.94L187.07-10.94Q189.76-10.94 191.42-9.92L191.42-9.92L191.42-9.92Q190.59-7.81 190.59-6.40L190.59-6.40L190.59-6.40Q190.59-2.18 194.18-2.18L194.18-2.18L194.18-2.18Q195.71-2.18 196.74-3.14L196.74-3.14L196.74-3.14Q197.76-4.10 197.76-5.76L197.76-5.76L197.76-5.76Q197.76-9.02 192.26-12.48L192.26-12.48L192.26-12.48Q187.78-15.42 186.75-16.58L186.75-16.58L186.75-16.58Q185.02-18.62 185.02-21.18L185.02-21.18L185.02-21.18Q185.02-23.74 186.24-26.18L186.24-26.18L186.24-26.18Q187.46-28.61 189.70-30.34L189.70-30.34L189.70-30.34Q194.37-33.92 202.50-33.92L202.50-33.92L202.50-33.92Q206.66-33.92 209.12-32.26L209.12-32.26L209.12-32.26Q211.58-30.59 211.58-27.78L211.58-27.78L211.58-27.78Q211.58-24.96 209.89-23.36L209.89-23.36L209.89-23.36Q208.19-21.76 205.12-21.76L205.12-21.76L205.12-21.76Q203.01-21.76 201.98-22.46ZM229.31-3.52L229.31-3.52L229.31-3.52Q227.33 1.28 220.99 1.28L220.99 1.28L220.99 1.28Q217.73 1.28 215.68-0.96L215.68-0.96L215.68-0.96Q213.95-2.94 213.95-4.93L213.95-4.93L213.95-4.93Q213.95-10.11 216.32-20.22L216.32-20.22L218.69-32.64L231.68-33.92L227.78-13.70L227.78-13.70Q226.69-8.96 226.69-7.30L226.69-7.30L226.69-7.30Q226.69-3.65 229.31-3.52ZM219.84-41.54L219.84-41.54L219.84-41.54Q219.84-44.03 221.92-45.38L221.92-45.38L221.92-45.38Q224.00-46.72 227.01-46.72L227.01-46.72L227.01-46.72Q230.02-46.72 231.84-45.38L231.84-45.38L231.84-45.38Q233.66-44.03 233.66-41.54L233.66-41.54L233.66-41.54Q233.66-39.04 231.65-37.76L231.65-37.76L231.65-37.76Q229.63-36.48 226.62-36.48L226.62-36.48L226.62-36.48Q223.62-36.48 221.73-37.76L221.73-37.76L221.73-37.76Q219.84-39.04 219.84-41.54ZM259.71-37.12L259.71-37.12L259.71-37.12Q260.61-38.66 260.61-40.32L260.61-40.32L260.61-40.32Q260.61-43.26 258.82-43.26L258.82-43.26L258.82-43.26Q256.06-43.26 254.91-37.63L254.91-37.63L253.95-32.64L259.78-32.64L259.39-29.76L253.38-29.76L247.62 0L234.69 1.28L240.83-29.76L236.29-29.76L236.86-32.64L241.34-32.64L242.69-37.70L242.69-37.70Q243.84-42.37 248.77-44.54L248.77-44.54L248.77-44.54Q252.35-46.08 258.37-46.08L258.37-46.08L258.37-46.08Q264.38-46.08 267.07-44.54L267.07-44.54L267.07-44.54Q269.76-43.01 269.76-40.96L269.76-40.96L269.76-40.96Q269.76-38.91 268.16-37.63L268.16-37.63L268.16-37.63Q266.56-36.35 264.77-36.35L264.77-36.35L264.77-36.35Q261.25-36.35 259.71-37.12ZM279.55-7.23L279.55-7.23L279.55-7.23Q276.22-3.78 270.14-3.78L270.14-3.78L270.14-3.78Q262.53-3.78 260.93-9.34L260.93-9.34L260.93-9.34Q260.42-11.01 260.42-12.86L260.42-12.86L260.42-12.86Q260.42-14.72 260.80-16.64L260.80-16.64L263.81-32.64L276.80-33.92L273.28-15.30L273.28-15.30Q273.15-14.46 272.96-13.57L272.96-13.57L272.96-13.57Q272.77-12.67 272.77-11.74L272.77-11.74L272.77-11.74Q272.77-10.82 273.09-10.21L273.09-10.21L273.09-10.21Q273.41-9.60 273.86-9.22L273.86-9.22L273.86-9.22Q274.62-8.70 276.00-8.70L276.00-8.70L276.00-8.70Q277.38-8.70 278.56-10.37L278.56-10.37L278.56-10.37Q279.74-12.03 280.32-14.91L280.32-14.91L283.84-32.64L296.45-33.92L291.65-8.77L291.65-8.77Q289.28 3.52 284.42 8.38L284.42 8.38L284.42 8.38Q281.92 10.88 278.69 11.87L278.69 11.87L278.69 11.87Q275.46 12.86 271.30 12.86L271.30 12.86L271.30 12.86Q264.58 12.86 260.74 10.75L260.74 10.75L260.74 10.75Q256.90 8.64 256.90 5.12L256.90 5.12L256.90 5.12Q256.90 2.50 258.88 0.99L258.88 0.99L258.88 0.99Q260.86-0.51 263.94-0.51L263.94-0.51L263.94-0.51Q266.62-0.51 268.67 0.64L268.67 0.64L268.67 0.64Q269.89 1.34 270.46 2.24L270.46 2.24L270.46 2.24Q268.99 3.52 268.99 5.63L268.99 5.63L268.99 5.63Q268.99 8.45 271.55 8.45L271.55 8.45L271.55 8.45Q275.78 8.45 278.21-1.28L278.21-1.28L278.21-1.28Q278.91-4.16 279.55-7.23Z" fill="url(#editing-gradient-gradient)"></path></g></g><style>text {
  font-size: 64px;
  font-family: Arial Black;
  dominant-baseline: central;
  text-anchor: middle;
}</style></svg>