<svg width="472.7781494140625px" height="121.60000610351562px" xmlns="http://www.w3.org/2000/svg" viewBox="13.610925292968744 14.199996948242188 472.7781494140625 121.60000610351562" style="background: rgba(0, 0, 0, 0);" preserveAspectRatio="xMidYMid"><defs><linearGradient id="editing-gradient-gradient" x1="0" x2="1" y1="0.5" y2="0.5" gradientUnits="objectBoundingBox"><stop offset="0" stop-color="#7fbcd2"></stop><stop offset="1" stop-color="#a5f1e9"></stop></linearGradient></defs><g><g transform="translate(85.07046842575073, 97.39999580383301)"><path d="M27.01-20.61L39.94-21.76L39.94-21.76Q35.33-11.65 35.33 0.06L35.33 0.06L35.33 0.06Q33.60 1.28 31.07 1.28L31.07 1.28L31.07 1.28Q28.54 1.28 26.94 0.10L26.94 0.10L26.94 0.10Q25.34-1.09 25.02-2.30L25.02-2.30L25.02-2.30Q23.42-0.64 20.83 0.32L20.83 0.32L20.83 0.32Q18.24 1.28 15.49 1.28L15.49 1.28L15.49 1.28Q12.74 1.28 10.34 0.38L10.34 0.38L10.34 0.38Q7.94-0.51 6.08-2.50L6.08-2.50L6.08-2.50Q1.98-6.85 1.98-15.10L1.98-15.10L1.98-15.10Q1.98-27.90 8.83-35.58L8.83-35.58L8.83-35.58Q15.87-43.52 28.35-43.52L28.35-43.52L28.35-43.52Q36.99-43.52 40.06-39.04L40.06-39.04L40.06-39.04Q41.02-37.63 41.02-35.94L41.02-35.94L41.02-35.94Q41.02-34.24 40.29-32.80L40.29-32.80L40.29-32.80Q39.55-31.36 38.40-30.21L38.40-30.21L38.40-30.21Q35.65-27.65 32.26-27.65L32.26-27.65L32.26-27.65Q30.91-27.65 29.63-28.10L29.63-28.10L29.63-28.10Q29.89-30.02 29.89-32.26L29.89-32.26L29.89-32.26Q29.89-34.50 29.73-35.52L29.73-35.52L29.73-35.52Q29.57-36.54 29.18-37.38L29.18-37.38L29.18-37.38Q28.35-39.10 26.53-39.10L26.53-39.10L26.53-39.10Q24.70-39.10 22.69-37.15L22.69-37.15L22.69-37.15Q20.67-35.20 19.07-32L19.07-32L19.07-32Q15.55-24.83 15.55-16.19L15.55-16.19L15.55-16.19Q15.55-12.22 17.09-9.41L17.09-9.41L17.09-9.41Q18.75-6.34 21.70-6.34L21.70-6.34L21.70-6.34Q22.72-6.34 23.65-6.85L23.65-6.85L23.65-6.85Q24.58-7.36 24.96-7.74L24.96-7.74L27.01-20.61ZM69.82-9.86L69.82-9.86L69.82-9.86Q71.04-8.32 71.04-5.34L71.04-5.34L71.04-5.34Q71.04-2.37 68.77-0.54L68.77-0.54L68.77-0.54Q66.50 1.28 62.53 1.28L62.53 1.28L62.53 1.28Q60.22 1.28 56.64 0.77L56.64 0.77L56.64 0.77Q49.60-0.32 47.58-0.32L47.58-0.32L47.58-0.32Q45.57-0.32 44.74-0.22L44.74-0.22L44.74-0.22Q43.90-0.13 42.56 0L42.56 0L50.30-42.24L64.32-42.24L57.92-7.04L57.92-7.04Q58.75-6.91 59.52-6.91L59.52-6.91L61.12-6.91L61.12-6.91Q66.50-6.91 69.82-9.86ZM88.58 0L74.62 0L82.75-42.24L96.83-42.24L88.58 0ZM103.68 0L96.32 0L107.90-42.24L121.28-42.24L124.22-18.11L136.13-42.24L147.33-42.24L148.48-10.62L148.48-10.62Q148.74-4.35 151.81-2.43L151.81-2.43L151.81-2.43Q151.10-1.15 149.06 0.06L149.06 0.06L149.06 0.06Q147.01 1.28 144.29 1.28L144.29 1.28L144.29 1.28Q141.57 1.28 139.97 0.51L139.97 0.51L139.97 0.51Q138.37-0.26 137.47-1.54L137.47-1.54L137.47-1.54Q135.87-3.84 135.87-8.26L135.87-8.26L135.87-28.03L123.26 0L115.33 0L110.85-28.74L103.68 0ZM179.58-42.69L179.58-42.69L179.58-42.69Q195.26-42.69 195.26-31.62L195.26-31.62L195.26-31.62Q195.26-25.54 191.36-21.89L191.36-21.89L191.36-21.89Q187.52-18.24 180.80-18.24L180.80-18.24L180.80-18.24Q177.66-18.24 175.23-20.03L175.23-20.03L175.23-20.03Q174.08-20.80 173.31-21.82L173.31-21.82L173.31-21.82Q177.98-21.82 180.45-24.67L180.45-24.67L180.45-24.67Q182.91-27.52 182.91-33.09L182.91-33.09L182.91-33.09Q182.91-38.66 177.41-38.66L177.41-38.66L175.87-38.66L175.87-38.66Q175.49-38.66 175.17-38.59L175.17-38.59L167.81 0L153.92 0L161.79-41.92L161.79-41.92Q168.64-42.56 172.61-42.62L172.61-42.62L172.61-42.62Q176.58-42.69 179.58-42.69ZM220.54-29.57L220.54-29.57L220.54-29.57Q221.50-31.49 221.50-33.28L221.50-33.28L221.50-33.28Q221.50-35.07 221.31-36.06L221.31-36.06L221.31-36.06Q221.12-37.06 220.67-37.82L220.67-37.82L220.67-37.82Q219.71-39.49 217.79-39.49L217.79-39.49L217.79-39.49Q215.42-39.49 213.50-37.76L213.50-37.76L213.50-37.76Q211.46-35.97 211.46-33.15L211.46-33.15L211.46-33.15Q211.46-31.36 212.70-29.98L212.70-29.98L212.70-29.98Q213.95-28.61 215.87-27.33L215.87-27.33L215.87-27.33Q217.79-26.05 219.97-24.77L219.97-24.77L219.97-24.77Q222.14-23.49 224.06-21.95L224.06-21.95L224.06-21.95Q228.48-18.43 228.48-13.70L228.48-13.70L228.48-13.70Q228.48-10.50 226.78-7.78L226.78-7.78L226.78-7.78Q225.09-5.06 222.27-3.07L222.27-3.07L222.27-3.07Q216.13 1.28 208 1.28L208 1.28L208 1.28Q201.41 1.28 198.02-0.86L198.02-0.86L198.02-0.86Q194.62-3.01 194.62-6.27L194.62-6.27L194.62-6.27Q194.62-12.10 199.17-13.57L199.17-13.57L199.17-13.57Q200.45-14.02 202.40-14.02L202.40-14.02L202.40-14.02Q204.35-14.02 206.59-13.18L206.59-13.18L206.59-13.18Q205.57-10.56 205.57-8.19L205.57-8.19L205.57-8.19Q205.57-3.07 209.22-3.07L209.22-3.07L209.22-3.07Q211.58-3.07 213.54-4.80L213.54-4.80L213.54-4.80Q215.49-6.53 215.49-8.48L215.49-8.48L215.49-8.48Q215.49-10.43 214.24-11.84L214.24-11.84L214.24-11.84Q212.99-13.25 211.14-14.37L211.14-14.37L211.14-14.37Q209.28-15.49 207.14-16.58L207.14-16.58L207.14-16.58Q204.99-17.66 203.14-19.20L203.14-19.20L203.14-19.20Q198.78-22.72 198.78-28.35L198.78-28.35L198.78-28.35Q198.78-32 200.58-34.85L200.58-34.85L200.58-34.85Q202.37-37.70 205.25-39.62L205.25-39.62L205.25-39.62Q211.01-43.52 218.08-43.52L218.08-43.52L218.08-43.52Q225.15-43.52 228.58-41.41L228.58-41.41L228.58-41.41Q232-39.30 232-35.71L232-35.71L232-35.71Q232-32.58 229.57-30.59L229.57-30.59L229.57-30.59Q227.46-28.93 224.90-28.93L224.90-28.93L224.90-28.93Q222.34-28.93 220.54-29.57ZM246.59 0L232.64 0L240.77-42.24L254.85-42.24L246.59 0ZM285.38-33.92L285.38-33.92L285.38-33.92Q280.19-33.92 276.42-35.65L276.42-35.65L274.37-25.28L286.72-25.28L286.72-25.28Q286.72-21.89 285.02-19.74L285.02-19.74L285.02-19.74Q283.33-17.60 280.26-17.60L280.26-17.60L280.26-17.60Q276.93-17.60 273.86-18.82L273.86-18.82L273.86-18.82Q273.22-19.07 273.15-19.14L273.15-19.14L269.50 0L255.55 0L263.68-42.24L292.22-42.24L292.22-42.24Q292.22-38.34 290.40-36.13L290.40-36.13L290.40-36.13Q288.58-33.92 285.38-33.92ZM297.15 0L300.86-18.82L300.86-18.82Q299.01-36.16 292.48-39.87L292.48-39.87L292.48-39.87Q293.82-41.54 296-42.46L296-42.46L296-42.46Q298.18-43.39 300.80-43.39L300.80-43.39L300.80-43.39Q303.42-43.39 305.41-42.46L305.41-42.46L305.41-42.46Q307.39-41.54 308.67-39.55L308.67-39.55L308.67-39.55Q311.10-35.78 311.10-26.75L311.10-26.75L311.10-22.14L311.10-22.14Q314.94-33.41 318.78-38.27L318.78-38.27L318.78-38.27Q322.69-43.26 327.55-43.26L327.55-43.26L327.55-43.26Q329.47-43.26 330.75-42.27L330.75-42.27L330.75-42.27Q332.03-41.28 332.67-39.81L332.67-39.81L332.67-39.81Q327.74-37.63 323.01-31.36L323.01-31.36L323.01-31.36Q318.27-25.09 315.20-16.32L315.20-16.32L311.42 0L297.15 0Z" fill="url(#editing-gradient-gradient)"></path></g></g><style>text {
  font-size: 64px;
  font-family: Arial Black;
  dominant-baseline: central;
  text-anchor: middle;
}</style></svg>